<?xml version="1.0" encoding="UTF-8" standalone="no"?>
<!DOCTYPE svg PUBLIC "-//W3C//DTD SVG 1.1//EN"
 "http://www.w3.org/Graphics/SVG/1.1/DTD/svg11.dtd">
<!-- Generated by graphviz version 2.36.0 (20140111.2315)
 -->
<!-- Title: controllers_diagram Pages: 1 -->
<svg width="470pt" height="468pt"
 viewBox="0.00 0.00 470.00 467.74" xmlns="http://www.w3.org/2000/svg" xmlns:xlink="http://www.w3.org/1999/xlink">
<g id="graph0" class="graph" transform="scale(1 1) rotate(0) translate(4 463.74)">
<title>controllers_diagram</title>
<polygon fill="none" stroke="none" points="-4,4 -4,-463.74 466,-463.74 466,4 -4,4"/>
<!-- _diagram_info -->
<g id="node1" class="node"><title>_diagram_info</title>
<text text-anchor="start" x="288" y="-63.6" font-family="Times,serif" font-size="13.00">Controllers diagram</text>
<text text-anchor="start" x="288" y="-49.6" font-family="Times,serif" font-size="13.00">Date: Aug 20 2016 &#45; 17:03</text>
<text text-anchor="start" x="288" y="-35.6" font-family="Times,serif" font-size="13.00">Migration version: 0</text>
<text text-anchor="start" x="288" y="-21.6" font-family="Times,serif" font-size="13.00">Generated by RailRoady 1.4.2</text>
<text text-anchor="start" x="288" y="-7.6" font-family="Times,serif" font-size="13.00">http://railroady.prestonlee.com</text>
</g>
<!-- ErrorsController -->
<g id="node2" class="node"><title>ErrorsController</title>
<path fill="none" stroke="black" d="M12,-236.354C12,-236.354 107,-236.354 107,-236.354 113,-236.354 119,-242.354 119,-248.354 119,-248.354 119,-362.354 119,-362.354 119,-368.354 113,-374.354 107,-374.354 107,-374.354 12,-374.354 12,-374.354 6,-374.354 0,-368.354 0,-362.354 0,-362.354 0,-248.354 0,-248.354 0,-242.354 6,-236.354 12,-236.354"/>
<text text-anchor="middle" x="59.5" y="-359.154" font-family="Times,serif" font-size="14.00">ErrorsController</text>
<polyline fill="none" stroke="black" points="0,-351.354 119,-351.354 "/>
<text text-anchor="start" x="8" y="-336.154" font-family="Times,serif" font-size="14.00">internal_error</text>
<text text-anchor="start" x="8" y="-321.154" font-family="Times,serif" font-size="14.00">not_found</text>
<text text-anchor="start" x="8" y="-306.154" font-family="Times,serif" font-size="14.00">permission_denied</text>
<text text-anchor="start" x="8" y="-291.154" font-family="Times,serif" font-size="14.00">service_down</text>
<polyline fill="none" stroke="black" points="0,-283.354 119,-283.354 "/>
<polyline fill="none" stroke="black" points="0,-259.354 119,-259.354 "/>
<text text-anchor="start" x="8" y="-244.154" font-family="Times,serif" font-size="14.00">_layout</text>
</g>
<!-- DataController -->
<g id="node3" class="node"><title>DataController</title>
<path fill="none" stroke="black" d="M212.816,-126.24C212.816,-126.24 376.816,-126.24 376.816,-126.24 382.816,-126.24 388.816,-132.24 388.816,-138.24 388.816,-138.24 388.816,-447.24 388.816,-447.24 388.816,-453.24 382.816,-459.24 376.816,-459.24 376.816,-459.24 212.816,-459.24 212.816,-459.24 206.816,-459.24 200.816,-453.24 200.816,-447.24 200.816,-447.24 200.816,-138.24 200.816,-138.24 200.816,-132.24 206.816,-126.24 212.816,-126.24"/>
<text text-anchor="middle" x="294.816" y="-444.04" font-family="Times,serif" font-size="14.00">DataController</text>
<polyline fill="none" stroke="black" points="200.816,-436.24 388.816,-436.24 "/>
<text text-anchor="start" x="208.816" y="-421.04" font-family="Times,serif" font-size="14.00">clipNow</text>
<text text-anchor="start" x="208.816" y="-406.04" font-family="Times,serif" font-size="14.00">clipper</text>
<text text-anchor="start" x="208.816" y="-391.04" font-family="Times,serif" font-size="14.00">connection_establishment</text>
<text text-anchor="start" x="208.816" y="-376.04" font-family="Times,serif" font-size="14.00">create</text>
<text text-anchor="start" x="208.816" y="-361.04" font-family="Times,serif" font-size="14.00">create_tree_structure</text>
<text text-anchor="start" x="208.816" y="-346.04" font-family="Times,serif" font-size="14.00">downloadCsv</text>
<text text-anchor="start" x="208.816" y="-331.04" font-family="Times,serif" font-size="14.00">downloadShp</text>
<text text-anchor="start" x="208.816" y="-316.04" font-family="Times,serif" font-size="14.00">exists_table?</text>
<text text-anchor="start" x="208.816" y="-301.04" font-family="Times,serif" font-size="14.00">final_tree</text>
<text text-anchor="start" x="208.816" y="-286.04" font-family="Times,serif" font-size="14.00">jsonToMap</text>
<text text-anchor="start" x="208.816" y="-271.04" font-family="Times,serif" font-size="14.00">listToClip</text>
<text text-anchor="start" x="208.816" y="-256.04" font-family="Times,serif" font-size="14.00">load</text>
<text text-anchor="start" x="208.816" y="-241.04" font-family="Times,serif" font-size="14.00">new</text>
<text text-anchor="start" x="208.816" y="-226.04" font-family="Times,serif" font-size="14.00">remove</text>
<text text-anchor="start" x="208.816" y="-211.04" font-family="Times,serif" font-size="14.00">tables</text>
<text text-anchor="start" x="208.816" y="-196.04" font-family="Times,serif" font-size="14.00">uploader_params</text>
<text text-anchor="start" x="208.816" y="-181.04" font-family="Times,serif" font-size="14.00">validate_name_return_message</text>
<polyline fill="none" stroke="black" points="200.816,-173.24 388.816,-173.24 "/>
<polyline fill="none" stroke="black" points="200.816,-149.24 388.816,-149.24 "/>
<text text-anchor="start" x="208.816" y="-134.04" font-family="Times,serif" font-size="14.00">_layout</text>
</g>
<!-- ApplicationController -->
<g id="node4" class="node"><title>ApplicationController</title>
<path fill="none" stroke="black" d="M112.046,-0.5C112.046,-0.5 224.046,-0.5 224.046,-0.5 230.046,-0.5 236.046,-6.5 236.046,-12.5 236.046,-12.5 236.046,-96.5 236.046,-96.5 236.046,-102.5 230.046,-108.5 224.046,-108.5 224.046,-108.5 112.046,-108.5 112.046,-108.5 106.046,-108.5 100.046,-102.5 100.046,-96.5 100.046,-96.5 100.046,-12.5 100.046,-12.5 100.046,-6.5 106.046,-0.5 112.046,-0.5"/>
<text text-anchor="middle" x="168.046" y="-93.3" font-family="Times,serif" font-size="14.00">ApplicationController</text>
<polyline fill="none" stroke="black" points="100.046,-85.5 236.046,-85.5 "/>
<text text-anchor="start" x="108.046" y="-70.3" font-family="Times,serif" font-size="14.00">render_404</text>
<text text-anchor="start" x="108.046" y="-55.3" font-family="Times,serif" font-size="14.00">render_500</text>
<polyline fill="none" stroke="black" points="100.046,-47.5 236.046,-47.5 "/>
<polyline fill="none" stroke="black" points="100.046,-23.5 236.046,-23.5 "/>
<text text-anchor="start" x="108.046" y="-8.3" font-family="Times,serif" font-size="14.00">_layout</text>
</g>
<!-- ApplicationController&#45;&gt;ErrorsController -->
<g id="edge1" class="edge"><title>ApplicationController&#45;&gt;ErrorsController</title>
<path fill="none" stroke="black" d="M144.626,-108.623C128.485,-145.927 106.891,-195.832 89.4909,-236.044"/>
</g>
<!-- ApplicationController&#45;&gt;DataController -->
<g id="edge2" class="edge"><title>ApplicationController&#45;&gt;DataController</title>
<path fill="none" stroke="black" d="M196.812,-108.56C199.807,-114.189 202.951,-120.097 206.2,-126.205"/>
</g>
</g>
</svg>
